<?xml version="1.0" encoding="iso-8859-1"?>
<svg height="993px" width="800px" version="1.1" id="Capa_1" xmlns="http://www.w3.org/2000/svg" xmlns:xlink="http://www.w3.org/1999/xlink" viewBox="0 -14 58 72" xml:space="preserve">
<g>
	<polygon style="fill:#F2ECBF;" points="52,-14 6,-14 6,30.571 21,42 37,42 52,30.571"/>
	<polygon style="fill:#ED7161;" points="0,58 0.129,58 57.541,58 57.871,58 58,58 37,42 21,42"/>
	<polygon style="fill:#C64645;" points="6.107,30.653 6,30.571 6,20.413 0,25.999 0,26 6.107,30.653"/>
	<polygon style="fill:#C64645;" points="52,20.413 52,30.571 51.792,30.729 51.793,30.729 58,26 58,25.999"/>
	<polygon style="fill:#D75A4A;" points="0,58 0,26 21,42"/>
	<polygon style="fill:#E95853;" points="58,58 58,26 37,42"/>
</g>
</svg>
