<svg width="825" height="825" viewBox="0 0 825 825" fill="none" xmlns="http://www.w3.org/2000/svg">
<g clip-path="url(#clip0_1_2)">
<path d="M625 0H200C89.5431 0 0 89.5431 0 200V625C0 735.457 89.5431 825 200 825H625C735.457 825 825 735.457 825 625V200C825 89.5431 735.457 0 625 0Z" fill="#0B0F1A"/>
<mask id="mask0_1_2" style="mask-type:alpha" maskUnits="userSpaceOnUse" x="0" y="0" width="825" height="825">
<path d="M625 0H200C89.5431 0 0 89.5431 0 200V625C0 735.457 89.5431 825 200 825H625C735.457 825 825 735.457 825 625V200C825 89.5431 735.457 0 625 0Z" fill="#0B0F1A"/>
</mask>
<g mask="url(#mask0_1_2)">
<path opacity="0.06" d="M554.996 562.897C640.289 481.968 643.826 347.219 562.897 261.926C481.969 176.633 347.219 173.096 261.926 254.024C176.633 334.953 173.096 469.703 254.024 554.996C334.953 640.289 469.703 643.826 554.996 562.897Z" fill="#F5C842"/>
<path opacity="0.1" d="M502.662 507.741C557.493 455.716 559.767 369.091 507.742 314.26C455.716 259.429 369.091 257.155 314.26 309.18C259.429 361.206 257.155 447.831 309.18 502.662C361.206 557.493 447.831 559.767 502.662 507.741Z" fill="#F5C842"/>
<path opacity="0.18" d="M466.028 469.132C499.536 437.339 500.926 384.402 469.132 350.894C437.339 317.386 384.402 315.996 350.894 347.789C317.386 379.583 315.996 432.52 347.789 466.028C379.583 499.536 432.52 500.926 466.028 469.132Z" fill="#F5C842"/>
<path opacity="0.35" d="M523.595 529.804C590.611 466.217 593.391 360.342 529.804 293.326C466.217 226.311 360.342 223.531 293.326 287.118C226.311 350.705 223.531 456.579 287.118 523.595C350.705 590.611 456.579 593.391 523.595 529.804Z" stroke="#378ADD" stroke-width="3.80164"/>
<path opacity="0.18" d="M565.462 573.928C656.848 487.219 660.638 342.845 573.928 251.459C487.219 160.074 342.845 156.284 251.459 242.993C160.074 329.703 156.284 474.077 242.993 565.462C329.703 656.848 474.077 660.638 565.462 573.928Z" stroke="#378ADD" stroke-width="2.28099"/>
<path opacity="0.6" d="M220.059 209.9L272.393 265.056" stroke="#F5C842" stroke-width="9.12395" stroke-linecap="round"/>
<path opacity="0.6" d="M596.863 607.022L544.529 551.866" stroke="#F5C842" stroke-width="9.12395" stroke-linecap="round"/>
<path opacity="0.6" d="M209.9 596.863L265.056 544.529" stroke="#F5C842" stroke-width="9.12395" stroke-linecap="round"/>
<path opacity="0.6" d="M607.022 220.059L551.866 272.393" stroke="#F5C842" stroke-width="9.12395" stroke-linecap="round"/>
<path opacity="0.5" d="M128.988 401.124L204.23 403.099" stroke="#F5C842" stroke-width="9.12395" stroke-linecap="round"/>
<path opacity="0.5" d="M415.798 128.988L413.823 204.23" stroke="#F5C842" stroke-width="9.12395" stroke-linecap="round"/>
<path opacity="0.5" d="M401.124 687.934L403.099 612.691" stroke="#F5C842" stroke-width="9.12395" stroke-linecap="round"/>
<path opacity="0.5" d="M687.934 415.798L612.691 413.823" stroke="#F5C842" stroke-width="9.12395" stroke-linecap="round"/>
<path opacity="0.7" d="M230.526 220.931C236.618 215.15 236.871 205.525 231.09 199.433C225.31 193.341 215.685 193.088 209.592 198.869C203.5 204.649 203.247 214.274 209.028 220.366C214.809 226.459 224.434 226.712 230.526 220.931Z" fill="#F5C842"/>
<path opacity="0.7" d="M607.329 618.053C613.422 612.273 613.674 602.648 607.894 596.555C602.113 590.463 592.488 590.21 586.396 595.991C580.304 601.772 580.051 611.397 585.831 617.489C591.612 623.581 601.237 623.834 607.329 618.053Z" fill="#F5C842"/>
<path opacity="0.7" d="M220.366 607.894C226.459 602.113 226.712 592.488 220.931 586.396C215.15 580.304 205.525 580.051 199.433 585.831C193.341 591.612 193.088 601.237 198.869 607.329C204.649 613.422 214.274 613.674 220.366 607.894Z" fill="#F5C842"/>
<path opacity="0.7" d="M617.489 231.09C623.581 225.31 623.834 215.685 618.053 209.592C612.273 203.5 602.648 203.247 596.555 209.028C590.463 214.809 590.21 224.433 595.991 230.526C601.772 236.618 611.396 236.871 617.489 231.09Z" fill="#F5C842"/>
<path opacity="0.55" d="M126.089 409.115C130.658 404.779 130.848 397.561 126.512 392.991C122.177 388.422 114.958 388.232 110.389 392.568C105.819 396.903 105.63 404.122 109.965 408.691C114.301 413.261 121.519 413.45 126.089 409.115Z" fill="white"/>
<path opacity="0.55" d="M423.931 126.512C428.5 122.177 428.689 114.958 424.354 110.389C420.018 105.819 412.8 105.63 408.23 109.965C403.661 114.301 403.472 121.519 407.807 126.089C412.143 130.658 419.361 130.848 423.931 126.512Z" fill="white"/>
<path opacity="0.55" d="M408.691 706.956C413.261 702.621 413.45 695.402 409.115 690.833C404.779 686.264 397.561 686.074 392.991 690.41C388.422 694.745 388.232 701.964 392.568 706.533C396.903 711.102 404.122 711.292 408.691 706.956Z" fill="white"/>
<path opacity="0.55" d="M706.533 424.354C711.102 420.018 711.292 412.8 706.957 408.23C702.621 403.661 695.402 403.472 690.833 407.807C686.264 412.143 686.074 419.361 690.41 423.931C694.745 428.5 701.964 428.689 706.533 424.354Z" fill="white"/>
<path opacity="0.6" d="M324.491 165.313C328.146 161.845 328.298 156.07 324.83 152.415C321.361 148.759 315.586 148.608 311.931 152.076C308.275 155.544 308.124 161.319 311.592 164.975C315.061 168.63 320.835 168.782 324.491 165.313Z" fill="#B5D4F4"/>
<path opacity="0.6" d="M170.054 311.848C173.71 308.38 173.861 302.605 170.393 298.949C166.925 295.294 161.15 295.142 157.494 298.611C153.839 302.079 153.687 307.854 157.156 311.509C160.624 315.165 166.399 315.316 170.054 311.848Z" fill="#B5D4F4"/>
<path opacity="0.55" d="M517.972 170.393C521.628 166.925 521.779 161.15 518.311 157.494C514.843 153.839 509.068 153.687 505.412 157.156C501.757 160.624 501.605 166.399 505.074 170.054C508.542 173.71 514.317 173.861 517.972 170.393Z" fill="#B5D4F4"/>
<path opacity="0.55" d="M164.975 505.33C168.63 501.861 168.782 496.086 165.313 492.431C161.845 488.775 156.07 488.624 152.415 492.092C148.759 495.561 148.608 501.336 152.076 504.991C155.544 508.646 161.319 508.798 164.975 505.33Z" fill="#B5D4F4"/>
<path opacity="0.55" d="M664.507 324.83C668.163 321.361 668.314 315.586 664.846 311.931C661.377 308.275 655.602 308.124 651.947 311.592C648.292 315.061 648.14 320.836 651.608 324.491C655.077 328.146 660.852 328.298 664.507 324.83Z" fill="#B5D4F4"/>
<path opacity="0.55" d="M311.509 659.766C315.165 656.298 315.316 650.523 311.848 646.867C308.38 643.212 302.605 643.06 298.949 646.529C295.294 649.997 295.142 655.772 298.611 659.427C302.079 663.083 307.854 663.234 311.509 659.766Z" fill="#B5D4F4"/>
<path d="M329.96 325.727L407.114 357.333L465.028 302.382L454.92 380.101L523.66 424.931L439.861 441.554L418.863 524.365L377.702 453.368L299.56 459.384L357.474 404.433L329.96 325.727Z" fill="#F5C842"/>
<path opacity="0.85" d="M329.96 325.727L396.083 367.799L426.419 339.016L438.373 395.801L501.597 445.864L439.861 441.554L440.926 503.432L394.249 437.668L338.169 422.75L368.505 393.966L329.96 325.727Z" fill="white"/>
<path d="M482.01 474.93L470.979 485.397C463.364 492.623 463.048 504.654 470.274 512.269L1134.91 1212.75C1142.14 1220.36 1154.17 1220.68 1161.79 1213.45L1172.82 1202.99C1180.43 1195.76 1180.75 1183.73 1173.52 1176.12L508.883 475.636C501.657 468.02 489.626 467.704 482.01 474.93Z" fill="url(#paint0_linear_1_2)"/>
</g>
</g>
<defs>
<linearGradient id="paint0_linear_1_2" x1="457.19" y1="498.48" x2="1148" y2="1226.54" gradientUnits="userSpaceOnUse">
<stop stop-color="#F5C842"/>
<stop offset="0.55" stop-color="#C8A030"/>
<stop offset="1" stop-color="#7A6020"/>
</linearGradient>
<clipPath id="clip0_1_2">
<rect width="825" height="825" fill="white"/>
</clipPath>
</defs>
</svg>
