<svg width="900" height="900" viewBox="0 0 900 900" fill="none" xmlns="http://www.w3.org/2000/svg">
<g clip-path="url(#clip0_29_2)">
<path opacity="0.06" d="M525.154 565.388C654.525 521.763 724.035 381.523 680.41 252.152C636.785 122.782 496.545 53.2717 367.175 96.8965C237.805 140.521 168.294 280.762 211.919 410.132C255.544 539.502 395.784 609.013 525.154 565.388Z" fill="#F5C842"/>
<path opacity="0.1" d="M496.944 481.729C580.11 453.684 624.796 363.53 596.751 280.363C568.707 197.196 478.552 152.511 395.385 180.556C312.219 208.6 267.534 298.755 295.578 381.921C323.623 465.088 413.777 509.773 496.944 481.729Z" fill="#F5C842"/>
<path opacity="0.18" d="M477.196 423.167C528.02 406.029 555.328 350.934 538.19 300.11C521.051 249.286 465.957 221.979 415.133 239.117C364.309 256.255 337.001 311.35 354.139 362.174C371.278 412.998 426.372 440.305 477.196 423.167Z" fill="#F5C842"/>
<path opacity="0.35" d="M508.228 515.192C609.876 480.916 664.491 370.727 630.215 269.079C595.938 167.431 485.749 112.815 384.101 147.092C282.453 181.368 227.838 291.557 262.114 393.205C296.391 494.853 406.58 549.469 508.228 515.192Z" stroke="#378ADD" stroke-width="4.41438"/>
<path opacity="0.18" d="M530.796 582.119C669.407 535.379 743.883 385.121 697.142 246.51C650.401 107.899 500.144 33.4236 361.533 80.1644C222.922 126.905 148.446 277.163 195.187 415.774C241.928 554.385 392.185 628.86 530.796 582.119Z" stroke="#378ADD" stroke-width="2.64863"/>
<path opacity="0.6" d="M344.606 29.969L372.817 113.628" stroke="#F5C842" stroke-width="10.5945" stroke-linecap="round"/>
<path opacity="0.6" d="M547.723 632.315L519.512 548.656" stroke="#F5C842" stroke-width="10.5945" stroke-linecap="round"/>
<path opacity="0.6" d="M144.991 432.7L228.651 404.49" stroke="#F5C842" stroke-width="10.5945" stroke-linecap="round"/>
<path opacity="0.6" d="M747.338 229.584L663.678 257.794" stroke="#F5C842" stroke-width="10.5945" stroke-linecap="round"/>
<path opacity="0.5" d="M155.303 186.976L233.612 225.79" stroke="#F5C842" stroke-width="10.5945" stroke-linecap="round"/>
<path opacity="0.5" d="M590.331 40.2807L551.517 118.59" stroke="#F5C842" stroke-width="10.5945" stroke-linecap="round"/>
<path opacity="0.5" d="M301.998 622.004L340.812 543.695" stroke="#F5C842" stroke-width="10.5945" stroke-linecap="round"/>
<path opacity="0.5" d="M737.026 475.308L658.717 436.494" stroke="#F5C842" stroke-width="10.5945" stroke-linecap="round"/>
<path opacity="0.7" d="M350.248 46.7009C359.489 43.5849 364.454 33.5677 361.338 24.327C358.222 15.0862 348.205 10.1212 338.964 13.2373C329.723 16.3533 324.758 26.3705 327.875 35.6112C330.991 44.852 341.008 49.817 350.248 46.7009Z" fill="#F5C842"/>
<path opacity="0.7" d="M553.365 649.047C562.606 645.931 567.571 635.914 564.455 626.673C561.339 617.432 551.321 612.467 542.081 615.583C532.84 618.699 527.875 628.716 530.991 637.957C534.107 647.198 544.124 652.163 553.365 649.047Z" fill="#F5C842"/>
<path opacity="0.7" d="M150.634 449.432C159.874 446.316 164.839 436.299 161.723 427.058C158.607 417.817 148.59 412.852 139.349 415.968C130.109 419.085 125.144 429.102 128.26 438.342C131.376 447.583 141.393 452.548 150.634 449.432Z" fill="#F5C842"/>
<path opacity="0.7" d="M752.98 246.316C762.22 243.2 767.185 233.182 764.069 223.942C760.953 214.701 750.936 209.736 741.695 212.852C732.455 215.968 727.49 225.985 730.606 235.226C733.722 244.467 743.739 249.432 752.98 246.316Z" fill="#F5C842"/>
<path opacity="0.55" d="M148.348 193.98C155.278 191.643 159.002 184.13 156.665 177.199C154.328 170.269 146.815 166.545 139.885 168.882C132.954 171.219 129.23 178.732 131.567 185.663C133.904 192.593 141.417 196.317 148.348 193.98Z" fill="white"/>
<path opacity="0.55" d="M600.107 41.6425C607.038 39.3055 610.762 31.7926 608.425 24.8621C606.087 17.9315 598.575 14.2077 591.644 16.5448C584.714 18.8818 580.99 26.3947 583.327 33.3252C585.664 40.2558 593.177 43.9796 600.107 41.6425Z" fill="white"/>
<path opacity="0.55" d="M300.685 645.739C307.616 643.402 311.339 635.889 309.002 628.959C306.665 622.028 299.152 618.305 292.222 620.642C285.291 622.979 281.568 630.491 283.905 637.422C286.242 644.353 293.755 648.076 300.685 645.739Z" fill="white"/>
<path opacity="0.55" d="M752.445 493.402C759.375 491.065 763.099 483.552 760.762 476.621C758.425 469.691 750.912 465.967 743.981 468.304C737.051 470.641 733.327 478.154 735.664 485.085C738.001 492.015 745.514 495.739 752.445 493.402Z" fill="white"/>
<path opacity="0.6" d="M476.399 33.9769C481.943 32.1073 484.922 26.097 483.052 20.5526C481.183 15.0081 475.173 12.0291 469.628 13.8988C464.084 15.7684 461.105 21.7787 462.974 27.3231C464.844 32.8676 470.854 35.8466 476.399 33.9769Z" fill="#B5D4F4"/>
<path opacity="0.6" d="M242.153 112.967C247.697 111.097 250.676 105.087 248.807 99.5423C246.937 93.9978 240.927 91.0188 235.382 92.8885C229.838 94.7581 226.859 100.768 228.729 106.313C230.598 111.857 236.609 114.836 242.153 112.967Z" fill="#B5D4F4"/>
<path opacity="0.55" d="M677.764 133.784C683.309 131.915 686.288 125.904 684.418 120.36C682.549 114.816 676.538 111.837 670.994 113.706C665.449 115.576 662.47 121.586 664.34 127.131C666.21 132.675 672.22 135.654 677.764 133.784Z" fill="#B5D4F4"/>
<path opacity="0.55" d="M142.346 314.332C147.89 312.463 150.869 306.452 148.999 300.908C147.13 295.363 141.12 292.384 135.575 294.254C130.031 296.124 127.052 302.134 128.921 307.678C130.791 313.223 136.801 316.202 142.346 314.332Z" fill="#B5D4F4"/>
<path opacity="0.55" d="M756.754 368.03C762.298 366.16 765.277 360.15 763.408 354.606C761.538 349.061 755.528 346.082 749.983 347.952C744.439 349.822 741.46 355.832 743.33 361.376C745.199 366.921 751.21 369.9 756.754 368.03Z" fill="#B5D4F4"/>
<path opacity="0.55" d="M221.335 548.578C226.88 546.708 229.859 540.698 227.989 535.154C226.12 529.609 220.109 526.63 214.565 528.5C209.02 530.369 206.041 536.38 207.911 541.924C209.781 547.469 215.791 550.448 221.335 548.578Z" fill="#B5D4F4"/>
<path d="M403.849 205.653L469.706 276.618L557.548 246.997L508.958 323.944L559.493 404.733L463.091 381.338L400.541 458.333L391.835 363.438L306.57 331.628L394.413 302.007L403.849 205.653Z" fill="#F5C842"/>
<path opacity="0.85" d="M403.849 205.653L452.974 282.26L498.987 266.744L483.86 332.407L526.03 416.017L463.091 381.338L434.005 447.049L416.932 354.975L365.132 311.881L411.144 296.365L403.849 205.653Z" fill="white"/>
<path d="M491.204 437.078L474.472 442.72C462.922 446.615 457.137 459.657 458.719 464.347L601.896 889.674C603.478 894.364 614.124 895.009 625.675 891.114L642.407 885.472C653.958 881.577 662.039 874.617 660.458 869.927L517.138 445.985C515.557 441.295 502.755 433.183 491.204 437.078Z" fill="url(#paint0_linear_29_2)"/>
</g>
<defs>
<linearGradient id="paint0_linear_29_2" x1="453.558" y1="449.773" x2="604.76" y2="898.167" gradientUnits="userSpaceOnUse">
<stop stop-color="#F5C842"/>
<stop offset="1" stop-color="#C8A030"/>
</linearGradient>
<clipPath id="clip0_29_2">
<rect width="900" height="900" fill="white"/>
</clipPath>
</defs>
</svg>
