<svg width="547" height="825" viewBox="0 0 547 825" fill="none" xmlns="http://www.w3.org/2000/svg">
<g clip-path="url(#clip0_1_86)">
<path opacity="0.06" d="M260.038 294.879C321.695 269.069 350.755 198.163 324.945 136.506C299.135 74.8487 228.228 45.7891 166.571 71.5992C104.914 97.4094 75.8545 168.316 101.665 229.973C127.475 291.63 198.381 320.689 260.038 294.879Z" fill="#F5C842"/>
<path opacity="0.1" d="M243.348 255.008C282.984 238.416 301.666 192.833 285.073 153.196C268.481 113.56 222.898 94.8784 183.262 111.471C143.625 128.063 124.944 173.646 141.536 213.282C158.128 252.919 203.711 271.6 243.348 255.008Z" fill="#F5C842"/>
<path opacity="0.18" d="M231.664 227.098C255.887 216.958 267.303 189.102 257.163 164.88C247.024 140.657 219.168 129.241 194.945 139.381C170.723 149.52 159.306 177.376 169.446 201.599C179.586 225.821 207.442 237.238 231.664 227.098Z" fill="#F5C842"/>
<path opacity="0.35" d="M250.024 270.956C298.469 250.677 321.301 194.965 301.022 146.52C280.742 98.0752 225.03 75.2426 176.586 95.5221C128.141 115.801 105.308 171.514 125.588 219.958C145.867 268.403 201.579 291.236 250.024 270.956Z" stroke="#378ADD" stroke-width="2.16119"/>
<path opacity="0.18" d="M263.376 302.854C329.437 275.2 360.573 199.229 332.919 133.168C305.265 67.1065 229.294 35.9711 163.233 63.6249C97.1719 91.2787 66.0366 167.25 93.6903 233.311C121.344 299.372 197.315 330.507 263.376 302.854Z" stroke="#378ADD" stroke-width="1.29672"/>
<path opacity="0.6" d="M153.219 39.7021L169.909 79.5735" stroke="#F5C842" stroke-width="5.18687" stroke-linecap="round"/>
<path opacity="0.6" d="M273.391 326.776L256.7 286.905" stroke="#F5C842" stroke-width="5.18687" stroke-linecap="round"/>
<path opacity="0.6" d="M69.7675 243.325L109.639 226.635" stroke="#F5C842" stroke-width="5.18687" stroke-linecap="round"/>
<path opacity="0.6" d="M356.842 123.153L316.97 139.844" stroke="#F5C842" stroke-width="5.18687" stroke-linecap="round"/>
<path opacity="0.5" d="M66.2436 122.969L105.837 139.196" stroke="#F5C842" stroke-width="5.18687" stroke-linecap="round"/>
<path opacity="0.5" d="M273.575 36.1782L257.348 75.7715" stroke="#F5C842" stroke-width="5.18687" stroke-linecap="round"/>
<path opacity="0.5" d="M153.034 330.3L169.261 290.707" stroke="#F5C842" stroke-width="5.18687" stroke-linecap="round"/>
<path opacity="0.5" d="M360.366 243.51L320.772 227.283" stroke="#F5C842" stroke-width="5.18687" stroke-linecap="round"/>
<path opacity="0.7" d="M156.557 47.6764C160.961 45.8328 163.037 40.7681 161.193 36.364C159.349 31.9599 154.285 29.8842 149.881 31.7278C145.477 33.5714 143.401 38.6361 145.244 43.0402C147.088 47.4443 152.153 49.52 156.557 47.6764Z" fill="#F5C842"/>
<path opacity="0.7" d="M276.729 334.751C281.133 332.907 283.208 327.842 281.365 323.438C279.521 319.034 274.457 316.959 270.052 318.802C265.648 320.646 263.573 325.71 265.416 330.115C267.26 334.519 272.325 336.594 276.729 334.751Z" fill="#F5C842"/>
<path opacity="0.7" d="M73.1056 251.299C77.5097 249.456 79.5854 244.391 77.7418 239.987C75.8982 235.583 70.8335 233.507 66.4294 235.351C62.0253 237.194 59.9497 242.259 61.7932 246.663C63.6368 251.067 68.7016 253.143 73.1056 251.299Z" fill="#F5C842"/>
<path opacity="0.7" d="M360.18 131.128C364.584 129.284 366.66 124.219 364.816 119.815C362.973 115.411 357.908 113.335 353.504 115.179C349.1 117.023 347.024 122.087 348.868 126.491C350.711 130.896 355.776 132.971 360.18 131.128Z" fill="#F5C842"/>
<path opacity="0.55" d="M63.091 126.631C66.394 125.249 67.9508 121.45 66.5681 118.147C65.1854 114.844 61.3869 113.287 58.0838 114.67C54.7807 116.053 53.224 119.851 54.6067 123.154C55.9894 126.457 59.7879 128.014 63.091 126.631Z" fill="white"/>
<path opacity="0.55" d="M278.397 36.5027C281.7 35.12 283.257 31.3214 281.874 28.0184C280.491 24.7153 276.693 23.1585 273.39 24.5412C270.087 25.9239 268.53 29.7225 269.912 33.0255C271.295 36.3286 275.094 37.8854 278.397 36.5027Z" fill="white"/>
<path opacity="0.55" d="M153.22 341.937C156.523 340.555 158.08 336.756 156.697 333.453C155.314 330.15 151.516 328.593 148.213 329.976C144.91 331.358 143.353 335.157 144.736 338.46C146.118 341.763 149.917 343.32 153.22 341.937Z" fill="white"/>
<path opacity="0.55" d="M368.526 251.808C371.829 250.426 373.385 246.627 372.003 243.324C370.62 240.021 366.821 238.464 363.518 239.847C360.215 241.23 358.659 245.028 360.041 248.331C361.424 251.634 365.223 253.191 368.526 251.808Z" fill="white"/>
<path opacity="0.6" d="M217.718 37.0685C220.36 35.9623 221.606 32.9235 220.5 30.281C219.393 27.6386 216.355 26.3932 213.712 27.4994C211.07 28.6055 209.824 31.6443 210.93 34.2868C212.037 36.9292 215.075 38.1746 217.718 37.0685Z" fill="#B5D4F4"/>
<path opacity="0.6" d="M106.078 83.8019C108.72 82.6958 109.966 79.6569 108.86 77.0145C107.753 74.3721 104.715 73.1267 102.072 74.2328C99.4297 75.339 98.1842 78.3778 99.2904 81.0202C100.397 83.6627 103.435 84.9081 106.078 83.8019Z" fill="#B5D4F4"/>
<path opacity="0.55" d="M319.529 78.7941C322.172 77.688 323.417 74.6491 322.311 72.0067C321.205 69.3642 318.166 68.1188 315.524 69.225C312.881 70.3311 311.636 73.37 312.742 76.0124C313.848 78.6549 316.887 79.9003 319.529 78.7941Z" fill="#B5D4F4"/>
<path opacity="0.55" d="M64.3522 185.613C66.9947 184.507 68.2401 181.468 67.134 178.826C66.0278 176.184 62.989 174.938 60.3465 176.044C57.7041 177.15 56.4587 180.189 57.5648 182.832C58.671 185.474 61.7098 186.72 64.3522 185.613Z" fill="#B5D4F4"/>
<path opacity="0.55" d="M366.263 190.434C368.905 189.328 370.151 186.289 369.045 183.647C367.938 181.004 364.9 179.759 362.257 180.865C359.615 181.971 358.369 185.01 359.475 187.652C360.582 190.295 363.62 191.54 366.263 190.434Z" fill="#B5D4F4"/>
<path opacity="0.55" d="M111.086 297.253C113.728 296.147 114.974 293.108 113.867 290.466C112.761 287.824 109.722 286.578 107.08 287.684C104.438 288.79 103.192 291.829 104.298 294.472C105.404 297.114 108.443 298.36 111.086 297.253Z" fill="#B5D4F4"/>
<path d="M188.269 123.432L222.902 155.793L264.767 138.268L243.718 177.537L271.211 215.229L223.319 207.162L195.455 246.941L187.898 200.903L145.152 188.339L187.017 170.814L188.269 123.432Z" fill="#F5C842"/>
<path opacity="0.85" d="M188.269 123.432L214.927 159.131L236.857 149.951L231.757 182.544L255.263 221.905L223.319 207.162L211.404 240.265L199.86 195.896L173.062 176.656L194.992 167.476L188.269 123.432Z" fill="white"/>
<path d="M238.99 233.403L231.015 236.741C225.51 239.046 222.916 245.377 225.22 250.882L437.19 757.249C439.494 762.754 445.825 765.349 451.33 763.044L459.304 759.706C464.809 757.401 467.404 751.071 465.1 745.565L253.13 239.198C250.826 233.693 244.495 231.099 238.99 233.403Z" fill="url(#paint0_linear_1_86)"/>
<path d="M435.938 703.886L427.963 707.224C419.155 710.911 415.004 721.041 418.691 729.849L442.058 785.669C445.745 794.477 455.874 798.628 464.682 794.941L472.657 791.603C481.465 787.916 485.616 777.787 481.929 768.978L458.562 713.158C454.875 704.35 444.746 700.199 435.938 703.886Z" fill="#2D1F5E"/>
<path opacity="0.55" d="M446.601 718.166L430.652 724.842C428.45 725.764 427.413 728.296 428.334 730.498C429.256 732.7 431.788 733.738 433.991 732.816L449.939 726.14C452.141 725.218 453.179 722.686 452.257 720.484C451.335 718.282 448.803 717.244 446.601 718.166Z" fill="#F5C842"/>
<path opacity="0.55" d="M454.946 738.101L438.998 744.777C436.796 745.699 435.758 748.232 436.68 750.434C437.601 752.636 440.134 753.673 442.336 752.752L458.284 746.075C460.486 745.154 461.524 742.621 460.602 740.419C459.681 738.217 457.148 737.179 454.946 738.101Z" fill="#F5C842"/>
<path opacity="0.55" d="M463.292 758.037L447.343 764.713C445.141 765.635 444.103 768.167 445.025 770.369C445.947 772.571 448.479 773.609 450.681 772.687L466.63 766.011C468.832 765.089 469.87 762.557 468.948 760.355C468.026 758.153 465.494 757.115 463.292 758.037Z" fill="#F5C842"/>
</g>
<defs>
<linearGradient id="paint0_linear_1_86" x1="221.047" y1="240.914" x2="441.362" y2="767.217" gradientUnits="userSpaceOnUse">
<stop stop-color="#F5C842"/>
<stop offset="0.55" stop-color="#C8A030"/>
<stop offset="1" stop-color="#7A6020"/>
</linearGradient>
<clipPath id="clip0_1_86">
<rect width="547" height="825" fill="white"/>
</clipPath>
</defs>
</svg>
