<svg width="825" height="825" viewBox="0 0 825 825" fill="none" xmlns="http://www.w3.org/2000/svg">
<g clip-path="url(#clip0_29_2)">
<path opacity="0.06" d="M558.779 548.518C653.106 459.017 657.019 309.996 567.518 215.669C478.017 121.342 328.996 117.429 234.669 206.93C140.342 296.431 136.429 445.452 225.93 539.779C315.431 634.106 464.452 638.019 558.779 548.518Z" fill="#F5C842"/>
<path opacity="0.1" d="M500.903 487.52C561.541 429.984 564.056 334.184 506.52 273.546C448.984 212.907 353.184 210.392 292.546 267.928C231.907 325.464 229.392 421.264 286.928 481.902C344.464 542.541 440.264 545.056 500.903 487.52Z" fill="#F5C842"/>
<path opacity="0.18" d="M460.389 444.822C497.446 409.661 498.983 351.116 463.822 314.059C428.661 277.002 370.116 275.465 333.059 310.626C296.002 345.787 294.465 404.332 329.626 441.389C364.787 478.446 423.332 479.983 460.389 444.822Z" fill="#F5C842"/>
<path opacity="0.35" d="M524.053 511.919C598.167 441.597 601.241 324.509 530.919 250.395C460.597 176.281 343.509 173.207 269.395 243.529C195.281 313.851 192.207 430.939 262.529 505.053C332.851 579.167 449.939 582.241 524.053 511.919Z" stroke="#378ADD" stroke-width="4.20431"/>
<path opacity="0.18" d="M570.355 560.717C671.419 464.824 675.611 305.158 579.718 204.093C483.824 103.029 324.158 98.8367 223.093 194.73C122.029 290.624 117.837 450.29 213.73 551.355C309.624 652.419 469.29 656.611 570.355 560.717Z" stroke="#378ADD" stroke-width="2.52258"/>
<path opacity="0.6" d="M188.367 158.132L246.244 219.129" stroke="#F5C842" stroke-width="10.0903" stroke-linecap="round"/>
<path opacity="0.6" d="M605.081 597.316L547.204 536.318" stroke="#F5C842" stroke-width="10.0903" stroke-linecap="round"/>
<path opacity="0.6" d="M177.132 586.081L238.13 528.204" stroke="#F5C842" stroke-width="10.0903" stroke-linecap="round"/>
<path opacity="0.6" d="M616.316 169.367L555.318 227.244" stroke="#F5C842" stroke-width="10.0903" stroke-linecap="round"/>
<path opacity="0.5" d="M87.6497 369.609L170.862 371.794" stroke="#F5C842" stroke-width="10.0903" stroke-linecap="round"/>
<path opacity="0.5" d="M404.839 68.6496L402.654 151.862" stroke="#F5C842" stroke-width="10.0903" stroke-linecap="round"/>
<path opacity="0.5" d="M388.61 686.798L390.794 603.586" stroke="#F5C842" stroke-width="10.0903" stroke-linecap="round"/>
<path opacity="0.5" d="M705.798 385.838L622.586 383.654" stroke="#F5C842" stroke-width="10.0903" stroke-linecap="round"/>
<path opacity="0.7" d="M199.943 170.331C206.68 163.938 206.96 153.294 200.567 146.556C194.174 139.819 183.53 139.539 176.792 145.932C170.054 152.325 169.775 162.969 176.168 169.707C182.561 176.445 193.205 176.724 199.943 170.331Z" fill="#F5C842"/>
<path opacity="0.7" d="M616.656 609.516C623.394 603.123 623.673 592.479 617.28 585.741C610.888 579.003 600.243 578.724 593.505 585.117C586.768 591.51 586.488 602.154 592.881 608.892C599.274 615.629 609.919 615.909 616.656 609.516Z" fill="#F5C842"/>
<path opacity="0.7" d="M188.707 598.28C195.445 591.887 195.724 581.243 189.331 574.505C182.938 567.768 172.294 567.488 165.556 573.881C158.819 580.274 158.539 590.918 164.932 597.656C171.325 604.394 181.97 604.673 188.707 598.28Z" fill="#F5C842"/>
<path opacity="0.7" d="M627.892 181.567C634.629 175.174 634.909 164.529 628.516 157.792C622.123 151.054 611.479 150.775 604.741 157.167C598.003 163.56 597.724 174.205 604.117 180.942C610.51 187.68 621.154 187.959 627.892 181.567Z" fill="#F5C842"/>
<path opacity="0.55" d="M84.4437 378.447C89.4969 373.652 89.7065 365.669 84.9119 360.616C80.1172 355.563 72.1339 355.353 67.0806 360.148C62.0274 364.942 61.8178 372.926 66.6125 377.979C71.4072 383.032 79.3905 383.242 84.4437 378.447Z" fill="white"/>
<path opacity="0.55" d="M413.832 65.9118C418.885 61.1172 419.095 53.1338 414.3 48.0806C409.506 43.0274 401.522 42.8178 396.469 47.6125C391.416 52.4072 391.206 60.3905 396.001 65.4437C400.796 70.4969 408.779 70.7065 413.832 65.9118Z" fill="white"/>
<path opacity="0.55" d="M396.979 707.835C402.032 703.041 402.242 695.057 397.447 690.004C392.652 684.951 384.669 684.741 379.616 689.536C374.563 694.331 374.353 702.314 379.148 707.367C383.942 712.421 391.926 712.63 396.979 707.835Z" fill="white"/>
<path opacity="0.55" d="M726.367 395.3C731.421 390.506 731.63 382.522 726.836 377.469C722.041 372.416 714.058 372.206 709.004 377.001C703.951 381.796 703.742 389.779 708.536 394.832C713.331 399.885 721.314 400.095 726.367 395.3Z" fill="white"/>
<path opacity="0.6" d="M303.86 108.823C307.903 104.987 308.07 98.6005 304.235 94.5579C300.399 90.5154 294.012 90.3477 289.97 94.1834C285.927 98.0192 285.759 104.406 289.595 108.448C293.431 112.491 299.818 112.659 303.86 108.823Z" fill="#B5D4F4"/>
<path opacity="0.6" d="M133.066 270.878C137.109 267.042 137.276 260.656 133.441 256.613C129.605 252.571 123.218 252.403 119.176 256.239C115.133 260.074 114.965 266.461 118.801 270.504C122.637 274.546 129.024 274.714 133.066 270.878Z" fill="#B5D4F4"/>
<path opacity="0.55" d="M517.835 114.441C521.877 110.605 522.045 104.218 518.209 100.176C514.374 96.133 507.987 95.9654 503.944 99.8011C499.902 103.637 499.734 110.023 503.57 114.066C507.406 118.109 513.792 118.276 517.835 114.441Z" fill="#B5D4F4"/>
<path opacity="0.55" d="M127.448 484.853C131.491 481.017 131.659 474.63 127.823 470.588C123.987 466.545 117.601 466.377 113.558 470.213C109.515 474.049 109.348 480.436 113.183 484.478C117.019 488.521 123.406 488.688 127.448 484.853Z" fill="#B5D4F4"/>
<path opacity="0.55" d="M679.89 285.235C683.933 281.399 684.1 275.012 680.265 270.97C676.429 266.927 670.042 266.759 666 270.595C661.957 274.431 661.789 280.818 665.625 284.86C669.461 288.903 675.848 289.07 679.89 285.235Z" fill="#B5D4F4"/>
<path opacity="0.55" d="M289.504 655.647C293.546 651.811 293.714 645.424 289.878 641.382C286.043 637.339 279.656 637.172 275.613 641.007C271.571 644.843 271.403 651.23 275.239 655.272C279.075 659.315 285.461 659.482 289.504 655.647Z" fill="#B5D4F4"/>
<path d="M309.909 286.227L395.235 321.18L459.282 260.41L448.104 346.36L524.124 395.938L431.45 414.323L408.228 505.904L362.707 427.387L276.289 434.04L340.337 373.27L309.909 286.227Z" fill="#F5C842"/>
<path opacity="0.85" d="M309.909 286.227L383.035 332.756L416.584 300.924L429.805 363.723L499.725 419.089L431.45 414.323L432.628 482.754L381.006 410.024L318.987 393.527L352.536 361.694L309.909 286.227Z" fill="white"/>
<path d="M478.064 451.233L465.864 462.809C457.442 470.8 457.666 484.386 460.911 487.806L754.946 798.021C758.191 801.44 767.649 797.734 776.071 789.743L788.271 778.168C796.693 770.177 800.89 760.927 797.645 757.507L504.041 448.546C500.797 445.126 486.486 443.242 478.064 451.233Z" fill="url(#paint0_linear_29_2)"/>
</g>
<defs>
<linearGradient id="paint0_linear_29_2" x1="450.615" y1="477.278" x2="760.822" y2="804.213" gradientUnits="userSpaceOnUse">
<stop stop-color="#F5C842"/>
<stop offset="1" stop-color="#C8A030"/>
</linearGradient>
<clipPath id="clip0_29_2">
<rect width="825" height="825" fill="white"/>
</clipPath>
</defs>
</svg>
